<?xml version="1.0" encoding="UTF-8" standalone="no"?>
<!DOCTYPE svg PUBLIC "-//W3C//DTD SVG 1.1//EN"
 "http://www.w3.org/Graphics/SVG/1.1/DTD/svg11.dtd">
<!-- Generated by graphviz version 2.30.1 (20130214.1330)
 -->
<!-- Title: CGenotypeData Pages: 1 -->
<svg width="148pt" height="324pt"
 viewBox="0.00 0.00 148.00 324.00" xmlns="http://www.w3.org/2000/svg" xmlns:xlink="http://www.w3.org/1999/xlink">
<g id="graph0" class="graph" transform="scale(1 1) rotate(0) translate(4 320)">
<title>CGenotypeData</title>
<polygon fill="white" stroke="white" points="-4,5 -4,-320 145,-320 145,5 -4,5"/>
<!-- Node1 -->
<g id="node1" class="node"><title>Node1</title>
<polygon fill="#bfbfbf" stroke="black" points="27,-0.5 27,-19.5 113,-19.5 113,-0.5 27,-0.5"/>
<text text-anchor="middle" x="70" y="-7.5" font-family="Helvetica,sans-Serif" font-size="10.00">CGenotypeData</text>
</g>
<!-- Node2 -->
<g id="node2" class="node"><title>Node2</title>
<polygon fill="white" stroke="#bfbfbf" points="0,-79 0,-109 140,-109 140,-79 0,-79"/>
<text text-anchor="start" x="8" y="-97" font-family="Helvetica,sans-Serif" font-size="10.00">std::vector&lt; CGenotypeData</text>
<text text-anchor="middle" x="70" y="-86" font-family="Helvetica,sans-Serif" font-size="10.00">::CSnpData &gt;</text>
</g>
<!-- Node2&#45;&gt;Node1 -->
<g id="edge1" class="edge"><title>Node2&#45;&gt;Node1</title>
<path fill="none" stroke="#9a32cd" stroke-dasharray="5,2" d="M70,-68.5997C70,-52.0312 70,-31.1113 70,-19.5915"/>
<polygon fill="#9a32cd" stroke="#9a32cd" points="66.5001,-68.7167 70,-78.7167 73.5001,-68.7167 66.5001,-68.7167"/>
<text text-anchor="middle" x="91.5" y="-52" font-family="Helvetica,sans-Serif" font-size="10.00"> mControl</text>
<text text-anchor="middle" x="91.5" y="-41" font-family="Helvetica,sans-Serif" font-size="10.00">mCase</text>
</g>
<!-- Node3 -->
<g id="node3" class="node"><title>Node3</title>
<g id="a_node3"><a xlink:href="../../df/d02/struct_c_genotype_data_1_1_c_snp_data.html" target="_top" xlink:title="Input data for one SNP. ">
<polygon fill="white" stroke="black" points="2,-158.5 2,-177.5 138,-177.5 138,-158.5 2,-158.5"/>
<text text-anchor="middle" x="70" y="-165.5" font-family="Helvetica,sans-Serif" font-size="10.00">CGenotypeData::CSnpData</text>
</a>
</g>
</g>
<!-- Node3&#45;&gt;Node2 -->
<g id="edge2" class="edge"><title>Node3&#45;&gt;Node2</title>
<path fill="none" stroke="#9a32cd" stroke-dasharray="5,2" d="M70,-148.085C70,-135.915 70,-120.354 70,-109.232"/>
<polygon fill="#9a32cd" stroke="#9a32cd" points="66.5001,-148.458 70,-158.458 73.5001,-148.458 66.5001,-148.458"/>
<text text-anchor="middle" x="91.5" y="-131.5" font-family="Helvetica,sans-Serif" font-size="10.00"> elements</text>
</g>
<!-- Node4 -->
<g id="node4" class="node"><title>Node4</title>
<g id="a_node4"><a xlink:title="STL class. ">
<polygon fill="white" stroke="#bfbfbf" points="40,-226.5 40,-245.5 100,-245.5 100,-226.5 40,-226.5"/>
<text text-anchor="middle" x="70" y="-233.5" font-family="Helvetica,sans-Serif" font-size="10.00">std::string</text>
</a>
</g>
</g>
<!-- Node4&#45;&gt;Node3 -->
<g id="edge3" class="edge"><title>Node4&#45;&gt;Node3</title>
<path fill="none" stroke="#9a32cd" stroke-dasharray="5,2" d="M70,-216.041C70,-203.472 70,-187.563 70,-177.841"/>
<polygon fill="#9a32cd" stroke="#9a32cd" points="66.5001,-216.372 70,-226.372 73.5001,-216.372 66.5001,-216.372"/>
<text text-anchor="middle" x="88.5" y="-199.5" font-family="Helvetica,sans-Serif" font-size="10.00"> mName</text>
</g>
<!-- Node5 -->
<g id="node5" class="node"><title>Node5</title>
<g id="a_node5"><a xlink:title="STL class. ">
<polygon fill="white" stroke="#bfbfbf" points="22.5,-285 22.5,-315 117.5,-315 117.5,-285 22.5,-285"/>
<text text-anchor="start" x="30.5" y="-303" font-family="Helvetica,sans-Serif" font-size="10.00">std::basic_string&lt;</text>
<text text-anchor="middle" x="70" y="-292" font-family="Helvetica,sans-Serif" font-size="10.00"> char &gt;</text>
</a>
</g>
</g>
<!-- Node5&#45;&gt;Node4 -->
<g id="edge4" class="edge"><title>Node5&#45;&gt;Node4</title>
<path fill="none" stroke="midnightblue" d="M70,-274.871C70,-264.663 70,-253.408 70,-245.842"/>
<polygon fill="midnightblue" stroke="midnightblue" points="66.5001,-274.931 70,-284.931 73.5001,-274.931 66.5001,-274.931"/>
</g>
</g>
</svg>
