<?xml version="1.0" encoding="UTF-8" standalone="no"?>
<!DOCTYPE svg PUBLIC "-//W3C//DTD SVG 1.1//EN"
 "http://www.w3.org/Graphics/SVG/1.1/DTD/svg11.dtd">
<!-- Generated by graphviz version 2.30.1 (20130214.1330)
 -->
<!-- Title: CGeneticAlgorithm Pages: 1 -->
<svg width="148pt" height="392pt"
 viewBox="0.00 0.00 148.00 392.00" xmlns="http://www.w3.org/2000/svg" xmlns:xlink="http://www.w3.org/1999/xlink">
<g id="graph0" class="graph" transform="scale(1 1) rotate(0) translate(4 388)">
<title>CGeneticAlgorithm</title>
<polygon fill="white" stroke="white" points="-4,5 -4,-388 145,-388 145,5 -4,5"/>
<!-- Node1 -->
<g id="node1" class="node"><title>Node1</title>
<polygon fill="#bfbfbf" stroke="black" points="21,-0.5 21,-19.5 119,-19.5 119,-0.5 21,-0.5"/>
<text text-anchor="middle" x="70" y="-7.5" font-family="Helvetica,sans-Serif" font-size="10.00">CGeneticAlgorithm</text>
</g>
<!-- Node2 -->
<g id="node2" class="node"><title>Node2</title>
<g id="a_node2"><a xlink:href="../../da/dee/class_c_genotype_data.html" target="_top" xlink:title="Interface for case and control dataset. ">
<polygon fill="white" stroke="black" points="27,-68.5 27,-87.5 113,-87.5 113,-68.5 27,-68.5"/>
<text text-anchor="middle" x="70" y="-75.5" font-family="Helvetica,sans-Serif" font-size="10.00">CGenotypeData</text>
</a>
</g>
</g>
<!-- Node2&#45;&gt;Node1 -->
<g id="edge1" class="edge"><title>Node2&#45;&gt;Node1</title>
<path fill="none" stroke="#9a32cd" stroke-dasharray="5,2" d="M70,-58.0413C70,-45.4724 70,-29.5631 70,-19.8411"/>
<polygon fill="#9a32cd" stroke="#9a32cd" points="66.5001,-58.3716 70,-68.3717 73.5001,-58.3717 66.5001,-58.3716"/>
<text text-anchor="middle" x="86" y="-41.5" font-family="Helvetica,sans-Serif" font-size="10.00"> mData</text>
</g>
<!-- Node3 -->
<g id="node3" class="node"><title>Node3</title>
<polygon fill="white" stroke="#bfbfbf" points="0,-147 0,-177 140,-177 140,-147 0,-147"/>
<text text-anchor="start" x="8" y="-165" font-family="Helvetica,sans-Serif" font-size="10.00">std::vector&lt; CGenotypeData</text>
<text text-anchor="middle" x="70" y="-154" font-family="Helvetica,sans-Serif" font-size="10.00">::CSnpData &gt;</text>
</g>
<!-- Node3&#45;&gt;Node2 -->
<g id="edge2" class="edge"><title>Node3&#45;&gt;Node2</title>
<path fill="none" stroke="#9a32cd" stroke-dasharray="5,2" d="M70,-136.6C70,-120.031 70,-99.1113 70,-87.5915"/>
<polygon fill="#9a32cd" stroke="#9a32cd" points="66.5001,-136.717 70,-146.717 73.5001,-136.717 66.5001,-136.717"/>
<text text-anchor="middle" x="91.5" y="-120" font-family="Helvetica,sans-Serif" font-size="10.00"> mControl</text>
<text text-anchor="middle" x="91.5" y="-109" font-family="Helvetica,sans-Serif" font-size="10.00">mCase</text>
</g>
<!-- Node4 -->
<g id="node4" class="node"><title>Node4</title>
<g id="a_node4"><a xlink:href="../../df/d02/struct_c_genotype_data_1_1_c_snp_data.html" target="_top" xlink:title="Input data for one SNP. ">
<polygon fill="white" stroke="black" points="2,-226.5 2,-245.5 138,-245.5 138,-226.5 2,-226.5"/>
<text text-anchor="middle" x="70" y="-233.5" font-family="Helvetica,sans-Serif" font-size="10.00">CGenotypeData::CSnpData</text>
</a>
</g>
</g>
<!-- Node4&#45;&gt;Node3 -->
<g id="edge3" class="edge"><title>Node4&#45;&gt;Node3</title>
<path fill="none" stroke="#9a32cd" stroke-dasharray="5,2" d="M70,-216.085C70,-203.915 70,-188.354 70,-177.232"/>
<polygon fill="#9a32cd" stroke="#9a32cd" points="66.5001,-216.458 70,-226.458 73.5001,-216.458 66.5001,-216.458"/>
<text text-anchor="middle" x="91.5" y="-199.5" font-family="Helvetica,sans-Serif" font-size="10.00"> elements</text>
</g>
<!-- Node5 -->
<g id="node5" class="node"><title>Node5</title>
<g id="a_node5"><a xlink:title="STL class. ">
<polygon fill="white" stroke="#bfbfbf" points="40,-294.5 40,-313.5 100,-313.5 100,-294.5 40,-294.5"/>
<text text-anchor="middle" x="70" y="-301.5" font-family="Helvetica,sans-Serif" font-size="10.00">std::string</text>
</a>
</g>
</g>
<!-- Node5&#45;&gt;Node4 -->
<g id="edge4" class="edge"><title>Node5&#45;&gt;Node4</title>
<path fill="none" stroke="#9a32cd" stroke-dasharray="5,2" d="M70,-284.041C70,-271.472 70,-255.563 70,-245.841"/>
<polygon fill="#9a32cd" stroke="#9a32cd" points="66.5001,-284.372 70,-294.372 73.5001,-284.372 66.5001,-284.372"/>
<text text-anchor="middle" x="88.5" y="-267.5" font-family="Helvetica,sans-Serif" font-size="10.00"> mName</text>
</g>
<!-- Node6 -->
<g id="node6" class="node"><title>Node6</title>
<g id="a_node6"><a xlink:title="STL class. ">
<polygon fill="white" stroke="#bfbfbf" points="22.5,-353 22.5,-383 117.5,-383 117.5,-353 22.5,-353"/>
<text text-anchor="start" x="30.5" y="-371" font-family="Helvetica,sans-Serif" font-size="10.00">std::basic_string&lt;</text>
<text text-anchor="middle" x="70" y="-360" font-family="Helvetica,sans-Serif" font-size="10.00"> char &gt;</text>
</a>
</g>
</g>
<!-- Node6&#45;&gt;Node5 -->
<g id="edge5" class="edge"><title>Node6&#45;&gt;Node5</title>
<path fill="none" stroke="midnightblue" d="M70,-342.871C70,-332.663 70,-321.408 70,-313.842"/>
<polygon fill="midnightblue" stroke="midnightblue" points="66.5001,-342.931 70,-352.931 73.5001,-342.931 66.5001,-342.931"/>
</g>
</g>
</svg>
