<?xml version="1.0" encoding="UTF-8" standalone="no"?>
<!DOCTYPE svg PUBLIC "-//W3C//DTD SVG 1.1//EN"
 "http://www.w3.org/Graphics/SVG/1.1/DTD/svg11.dtd">
<!-- Generated by graphviz version 2.30.1 (20130214.1330)
 -->
<!-- Title: HapSampleData.h Pages: 1 -->
<svg width="259pt" height="196pt"
 viewBox="0.00 0.00 259.00 196.00" xmlns="http://www.w3.org/2000/svg" xmlns:xlink="http://www.w3.org/1999/xlink">
<g id="graph0" class="graph" transform="scale(1 1) rotate(0) translate(4 192)">
<title>HapSampleData.h</title>
<polygon fill="white" stroke="white" points="-4,5 -4,-192 256,-192 256,5 -4,5"/>
<!-- Node1 -->
<g id="node1" class="node"><title>Node1</title>
<polygon fill="#bfbfbf" stroke="black" points="43.5,-168.5 43.5,-187.5 138.5,-187.5 138.5,-168.5 43.5,-168.5"/>
<text text-anchor="middle" x="91" y="-175.5" font-family="Helvetica,sans-Serif" font-size="10.00">HapSampleData.h</text>
</g>
<!-- Node2 -->
<g id="node2" class="node"><title>Node2</title>
<g id="a_node2"><a xlink:href="../../da/d58/_genotype_data_8h.html" target="_top" xlink:title="GenotypeData.h">
<polygon fill="white" stroke="black" points="47.5,-112.5 47.5,-131.5 134.5,-131.5 134.5,-112.5 47.5,-112.5"/>
<text text-anchor="middle" x="91" y="-119.5" font-family="Helvetica,sans-Serif" font-size="10.00">GenotypeData.h</text>
</a>
</g>
</g>
<!-- Node1&#45;&gt;Node2 -->
<g id="edge1" class="edge"><title>Node1&#45;&gt;Node2</title>
<path fill="none" stroke="midnightblue" d="M91,-168.083C91,-161.006 91,-150.861 91,-141.986"/>
<polygon fill="midnightblue" stroke="midnightblue" points="94.5001,-141.751 91,-131.751 87.5001,-141.751 94.5001,-141.751"/>
</g>
<!-- Node3 -->
<g id="node3" class="node"><title>Node3</title>
<g id="a_node3"><a xlink:href="../../d3/de8/_config_params_8h.html" target="_top" xlink:title="ConfigParams.h">
<polygon fill="white" stroke="black" points="48,-56.5 48,-75.5 134,-75.5 134,-56.5 48,-56.5"/>
<text text-anchor="middle" x="91" y="-63.5" font-family="Helvetica,sans-Serif" font-size="10.00">ConfigParams.h</text>
</a>
</g>
</g>
<!-- Node2&#45;&gt;Node3 -->
<g id="edge2" class="edge"><title>Node2&#45;&gt;Node3</title>
<path fill="none" stroke="midnightblue" d="M91,-112.083C91,-105.006 91,-94.8611 91,-85.9865"/>
<polygon fill="midnightblue" stroke="midnightblue" points="94.5001,-85.751 91,-75.7511 87.5001,-85.7511 94.5001,-85.751"/>
</g>
<!-- Node5 -->
<g id="node5" class="node"><title>Node5</title>
<polygon fill="white" stroke="#bfbfbf" points="-0.5,-0.5 -0.5,-19.5 40.5,-19.5 40.5,-0.5 -0.5,-0.5"/>
<text text-anchor="middle" x="20" y="-7.5" font-family="Helvetica,sans-Serif" font-size="10.00">string</text>
</g>
<!-- Node2&#45;&gt;Node5 -->
<g id="edge7" class="edge"><title>Node2&#45;&gt;Node5</title>
<path fill="none" stroke="midnightblue" d="M77.0822,-112.314C65.2999,-104.27 48.8066,-91.2691 39,-76 29.9662,-61.9342 25.1062,-43.4414 22.5704,-29.7783"/>
<polygon fill="midnightblue" stroke="midnightblue" points="25.9842,-28.961 20.9464,-19.6406 19.0723,-30.0684 25.9842,-28.961"/>
</g>
<!-- Node8 -->
<g id="node8" class="node"><title>Node8</title>
<polygon fill="white" stroke="#bfbfbf" points="152,-56.5 152,-75.5 194,-75.5 194,-56.5 152,-56.5"/>
<text text-anchor="middle" x="173" y="-63.5" font-family="Helvetica,sans-Serif" font-size="10.00">vector</text>
</g>
<!-- Node2&#45;&gt;Node8 -->
<g id="edge8" class="edge"><title>Node2&#45;&gt;Node8</title>
<path fill="none" stroke="midnightblue" d="M104.175,-112.324C116.847,-103.979 136.233,-91.2122 151.206,-81.3524"/>
<polygon fill="midnightblue" stroke="midnightblue" points="153.431,-84.0776 159.858,-75.6545 149.581,-78.2313 153.431,-84.0776"/>
</g>
<!-- Node4 -->
<g id="node4" class="node"><title>Node4</title>
<polygon fill="white" stroke="#bfbfbf" points="59,-0.5 59,-19.5 111,-19.5 111,-0.5 59,-0.5"/>
<text text-anchor="middle" x="85" y="-7.5" font-family="Helvetica,sans-Serif" font-size="10.00">memory</text>
</g>
<!-- Node3&#45;&gt;Node4 -->
<g id="edge3" class="edge"><title>Node3&#45;&gt;Node4</title>
<path fill="none" stroke="midnightblue" d="M90.0092,-56.083C89.2141,-48.9272 88.0706,-38.6353 87.0768,-29.6911"/>
<polygon fill="midnightblue" stroke="midnightblue" points="90.5553,-29.3034 85.9723,-19.7511 83.5982,-30.0765 90.5553,-29.3034"/>
</g>
<!-- Node3&#45;&gt;Node5 -->
<g id="edge4" class="edge"><title>Node3&#45;&gt;Node5</title>
<path fill="none" stroke="midnightblue" d="M79.5926,-56.324C68.8912,-48.1849 52.6593,-35.8395 39.8372,-26.0874"/>
<polygon fill="midnightblue" stroke="midnightblue" points="41.6932,-23.1018 31.6149,-19.8339 37.4556,-28.6734 41.6932,-23.1018"/>
</g>
<!-- Node6 -->
<g id="node6" class="node"><title>Node6</title>
<polygon fill="white" stroke="#bfbfbf" points="129.5,-0.5 129.5,-19.5 178.5,-19.5 178.5,-0.5 129.5,-0.5"/>
<text text-anchor="middle" x="154" y="-7.5" font-family="Helvetica,sans-Serif" font-size="10.00">fstream</text>
</g>
<!-- Node3&#45;&gt;Node6 -->
<g id="edge5" class="edge"><title>Node3&#45;&gt;Node6</title>
<path fill="none" stroke="midnightblue" d="M101.122,-56.324C110.526,-48.2631 124.744,-36.0765 136.069,-26.3695"/>
<polygon fill="midnightblue" stroke="midnightblue" points="138.379,-28.9993 143.694,-19.8339 133.823,-23.6844 138.379,-28.9993"/>
</g>
<!-- Node7 -->
<g id="node7" class="node"><title>Node7</title>
<polygon fill="white" stroke="#bfbfbf" points="197,-0.5 197,-19.5 251,-19.5 251,-0.5 197,-0.5"/>
<text text-anchor="middle" x="224" y="-7.5" font-family="Helvetica,sans-Serif" font-size="10.00">iostream</text>
</g>
<!-- Node3&#45;&gt;Node7 -->
<g id="edge6" class="edge"><title>Node3&#45;&gt;Node7</title>
<path fill="none" stroke="midnightblue" d="M112.074,-56.4435C134.06,-47.5171 168.734,-33.4387 193.664,-23.3168"/>
<polygon fill="midnightblue" stroke="midnightblue" points="195.076,-26.5213 203.024,-19.5164 192.442,-20.0355 195.076,-26.5213"/>
</g>
</g>
</svg>
