<?xml version="1.0" encoding="UTF-8" standalone="no"?>
<!DOCTYPE svg PUBLIC "-//W3C//DTD SVG 1.1//EN"
 "http://www.w3.org/Graphics/SVG/1.1/DTD/svg11.dtd">
<!-- Generated by graphviz version 2.30.1 (20130214.1330)
 -->
<!-- Title: EvolutionaryComputing::CMatching::BuildPreferencesData Pages: 1 -->
<svg width="330pt" height="38pt"
 viewBox="0.00 0.00 330.00 38.00" xmlns="http://www.w3.org/2000/svg" xmlns:xlink="http://www.w3.org/1999/xlink">
<g id="graph0" class="graph" transform="scale(1 1) rotate(0) translate(4 34)">
<title>EvolutionaryComputing::CMatching::BuildPreferencesData</title>
<polygon fill="white" stroke="white" points="-4,5 -4,-34 327,-34 327,5 -4,5"/>
<!-- Node1 -->
<g id="node1" class="node"><title>Node1</title>
<polygon fill="#bfbfbf" stroke="black" points="0.5,-0 0.5,-30 169.5,-30 169.5,-0 0.5,-0"/>
<text text-anchor="start" x="8.5" y="-18" font-family="Helvetica,sans-Serif" font-size="10.00">EvolutionaryComputing</text>
<text text-anchor="middle" x="85" y="-7" font-family="Helvetica,sans-Serif" font-size="10.00">::CMatching::BuildPreferencesData</text>
</g>
<!-- Node2 -->
<g id="node2" class="node"><title>Node2</title>
<g id="a_node2"><a xlink:href="../../d3/d43/class_evolutionary_computing_1_1_c_matching.html#aa8a490603632ce45d5cbd6f1feb7eecc" target="_top" xlink:title="EvolutionaryComputing\l::CMatching::Init">
<polygon fill="white" stroke="black" points="206,-0 206,-30 322,-30 322,-0 206,-0"/>
<text text-anchor="start" x="214" y="-18" font-family="Helvetica,sans-Serif" font-size="10.00">EvolutionaryComputing</text>
<text text-anchor="middle" x="264" y="-7" font-family="Helvetica,sans-Serif" font-size="10.00">::CMatching::Init</text>
</a>
</g>
</g>
<!-- Node1&#45;&gt;Node2 -->
<g id="edge1" class="edge"><title>Node1&#45;&gt;Node2</title>
<path fill="none" stroke="midnightblue" d="M179.644,-15C188.553,-15 197.392,-15 205.798,-15"/>
<polygon fill="midnightblue" stroke="midnightblue" points="179.576,-11.5001 169.576,-15 179.576,-18.5001 179.576,-11.5001"/>
</g>
</g>
</svg>
