<?xml version="1.0" encoding="UTF-8" standalone="no"?>
<!DOCTYPE svg PUBLIC "-//W3C//DTD SVG 1.1//EN"
 "http://www.w3.org/Graphics/SVG/1.1/DTD/svg11.dtd">
<!-- Generated by graphviz version 2.30.1 (20130214.1330)
 -->
<!-- Title: EvolutionaryComputing::CMatching::Init Pages: 1 -->
<svg width="540pt" height="150pt"
 viewBox="0.00 0.00 540.00 150.00" xmlns="http://www.w3.org/2000/svg" xmlns:xlink="http://www.w3.org/1999/xlink">
<g id="graph0" class="graph" transform="scale(1 1) rotate(0) translate(4 146)">
<title>EvolutionaryComputing::CMatching::Init</title>
<polygon fill="white" stroke="white" points="-4,5 -4,-146 537,-146 537,5 -4,5"/>
<!-- Node1 -->
<g id="node1" class="node"><title>Node1</title>
<polygon fill="#bfbfbf" stroke="black" points="0,-63 0,-93 116,-93 116,-63 0,-63"/>
<text text-anchor="start" x="8" y="-81" font-family="Helvetica,sans-Serif" font-size="10.00">EvolutionaryComputing</text>
<text text-anchor="middle" x="58" y="-70" font-family="Helvetica,sans-Serif" font-size="10.00">::CMatching::Init</text>
</g>
<!-- Node2 -->
<g id="node2" class="node"><title>Node2</title>
<g id="a_node2"><a xlink:href="../../d3/d43/class_evolutionary_computing_1_1_c_matching.html#a79375d80cd896d39582cbab08c766f3c" target="_top" xlink:title="EvolutionaryComputing\l::CMatching::BuildPreferencesData">
<polygon fill="white" stroke="black" points="152.5,-112 152.5,-142 321.5,-142 321.5,-112 152.5,-112"/>
<text text-anchor="start" x="160.5" y="-130" font-family="Helvetica,sans-Serif" font-size="10.00">EvolutionaryComputing</text>
<text text-anchor="middle" x="237" y="-119" font-family="Helvetica,sans-Serif" font-size="10.00">::CMatching::BuildPreferencesData</text>
</a>
</g>
</g>
<!-- Node1&#45;&gt;Node2 -->
<g id="edge1" class="edge"><title>Node1&#45;&gt;Node2</title>
<path fill="none" stroke="midnightblue" d="M113.55,-93.1014C131.974,-98.2019 152.712,-103.943 171.812,-109.23"/>
<polygon fill="midnightblue" stroke="midnightblue" points="171.059,-112.653 181.63,-111.948 172.926,-105.907 171.059,-112.653"/>
</g>
<!-- Node3 -->
<g id="node3" class="node"><title>Node3</title>
<g id="a_node3"><a xlink:href="../../d3/d43/class_evolutionary_computing_1_1_c_matching.html#ac634f7b576b67270505c1bb2aa88f64e" target="_top" xlink:title="EvolutionaryComputing\l::CMatching::FromStream">
<polygon fill="white" stroke="black" points="172.5,-63 172.5,-93 301.5,-93 301.5,-63 172.5,-63"/>
<text text-anchor="start" x="180.5" y="-81" font-family="Helvetica,sans-Serif" font-size="10.00">EvolutionaryComputing</text>
<text text-anchor="middle" x="237" y="-70" font-family="Helvetica,sans-Serif" font-size="10.00">::CMatching::FromStream</text>
</a>
</g>
</g>
<!-- Node1&#45;&gt;Node3 -->
<g id="edge2" class="edge"><title>Node1&#45;&gt;Node3</title>
<path fill="none" stroke="midnightblue" d="M116.467,-78C130.984,-78 146.776,-78 161.982,-78"/>
<polygon fill="midnightblue" stroke="midnightblue" points="162.393,-81.5001 172.393,-78 162.393,-74.5001 162.393,-81.5001"/>
</g>
<!-- Node5 -->
<g id="node5" class="node"><title>Node5</title>
<g id="a_node5"><a xlink:href="../../d3/d43/class_evolutionary_computing_1_1_c_matching.html#a8f4dec647c155ce0e4caf77169590f78" target="_top" xlink:title="EvolutionaryComputing\l::CMatching::ToString">
<polygon fill="white" stroke="black" points="179,-11 179,-41 295,-41 295,-11 179,-11"/>
<text text-anchor="start" x="187" y="-29" font-family="Helvetica,sans-Serif" font-size="10.00">EvolutionaryComputing</text>
<text text-anchor="middle" x="237" y="-18" font-family="Helvetica,sans-Serif" font-size="10.00">::CMatching::ToString</text>
</a>
</g>
</g>
<!-- Node1&#45;&gt;Node5 -->
<g id="edge4" class="edge"><title>Node1&#45;&gt;Node5</title>
<path fill="none" stroke="midnightblue" d="M110.196,-62.9594C130.468,-57.0037 153.937,-50.109 175.074,-43.8991"/>
<polygon fill="midnightblue" stroke="midnightblue" points="176.311,-47.1836 184.919,-41.0068 174.338,-40.4675 176.311,-47.1836"/>
</g>
<!-- Node4 -->
<g id="node4" class="node"><title>Node4</title>
<g id="a_node4"><a xlink:href="../../d8/d17/class_evolutionary_computing_1_1_c_matching_1_1_c_individual_preferences.html#a80db21ebdb16168c0029a95dffc6507a" target="_top" xlink:title="EvolutionaryComputing\l::CMatching::CIndividualPreferences\l::FromStream">
<polygon fill="white" stroke="black" points="358.5,-60.5 358.5,-101.5 531.5,-101.5 531.5,-60.5 358.5,-60.5"/>
<text text-anchor="start" x="366.5" y="-89.5" font-family="Helvetica,sans-Serif" font-size="10.00">EvolutionaryComputing</text>
<text text-anchor="start" x="366.5" y="-78.5" font-family="Helvetica,sans-Serif" font-size="10.00">::CMatching::CIndividualPreferences</text>
<text text-anchor="middle" x="445" y="-67.5" font-family="Helvetica,sans-Serif" font-size="10.00">::FromStream</text>
</a>
</g>
</g>
<!-- Node3&#45;&gt;Node4 -->
<g id="edge3" class="edge"><title>Node3&#45;&gt;Node4</title>
<path fill="none" stroke="midnightblue" d="M301.769,-78.9287C316.406,-79.1418 332.285,-79.3731 347.949,-79.6012"/>
<polygon fill="midnightblue" stroke="midnightblue" points="348.146,-83.1043 358.196,-79.7504 348.248,-76.1051 348.146,-83.1043"/>
</g>
<!-- Node6 -->
<g id="node6" class="node"><title>Node6</title>
<g id="a_node6"><a xlink:href="../../d8/d17/class_evolutionary_computing_1_1_c_matching_1_1_c_individual_preferences.html#af9205d3d537eefd9ad77da84715dc269" target="_top" xlink:title="EvolutionaryComputing\l::CMatching::CIndividualPreferences\l::ToString">
<polygon fill="white" stroke="black" points="358.5,-0.5 358.5,-41.5 531.5,-41.5 531.5,-0.5 358.5,-0.5"/>
<text text-anchor="start" x="366.5" y="-29.5" font-family="Helvetica,sans-Serif" font-size="10.00">EvolutionaryComputing</text>
<text text-anchor="start" x="366.5" y="-18.5" font-family="Helvetica,sans-Serif" font-size="10.00">::CMatching::CIndividualPreferences</text>
<text text-anchor="middle" x="445" y="-7.5" font-family="Helvetica,sans-Serif" font-size="10.00">::ToString</text>
</a>
</g>
</g>
<!-- Node5&#45;&gt;Node6 -->
<g id="edge5" class="edge"><title>Node5&#45;&gt;Node6</title>
<path fill="none" stroke="midnightblue" d="M295.109,-24.6139C311.585,-24.2139 330.031,-23.7662 348.179,-23.3258"/>
<polygon fill="midnightblue" stroke="midnightblue" points="348.303,-26.8239 358.215,-23.0822 348.133,-19.8259 348.303,-26.8239"/>
</g>
</g>
</svg>
