<?xml version="1.0" encoding="UTF-8" standalone="no"?>
<!DOCTYPE svg PUBLIC "-//W3C//DTD SVG 1.1//EN"
 "http://www.w3.org/Graphics/SVG/1.1/DTD/svg11.dtd">
<!-- Generated by graphviz version 2.30.1 (20130214.1330)
 -->
<!-- Title: CGenotypeData::CSnpData Pages: 1 -->
<svg width="144pt" height="166pt"
 viewBox="0.00 0.00 144.00 166.00" xmlns="http://www.w3.org/2000/svg" xmlns:xlink="http://www.w3.org/1999/xlink">
<g id="graph0" class="graph" transform="scale(1 1) rotate(0) translate(4 162)">
<title>CGenotypeData::CSnpData</title>
<polygon fill="white" stroke="white" points="-4,5 -4,-162 141,-162 141,5 -4,5"/>
<!-- Node1 -->
<g id="node1" class="node"><title>Node1</title>
<polygon fill="#bfbfbf" stroke="black" points="0,-0.5 0,-19.5 136,-19.5 136,-0.5 0,-0.5"/>
<text text-anchor="middle" x="68" y="-7.5" font-family="Helvetica,sans-Serif" font-size="10.00">CGenotypeData::CSnpData</text>
</g>
<!-- Node2 -->
<g id="node2" class="node"><title>Node2</title>
<g id="a_node2"><a xlink:title="STL class. ">
<polygon fill="white" stroke="#bfbfbf" points="38,-68.5 38,-87.5 98,-87.5 98,-68.5 38,-68.5"/>
<text text-anchor="middle" x="68" y="-75.5" font-family="Helvetica,sans-Serif" font-size="10.00">std::string</text>
</a>
</g>
</g>
<!-- Node2&#45;&gt;Node1 -->
<g id="edge1" class="edge"><title>Node2&#45;&gt;Node1</title>
<path fill="none" stroke="#9a32cd" stroke-dasharray="5,2" d="M68,-58.0413C68,-45.4724 68,-29.5631 68,-19.8411"/>
<polygon fill="#9a32cd" stroke="#9a32cd" points="64.5001,-58.3716 68,-68.3717 71.5001,-58.3717 64.5001,-58.3716"/>
<text text-anchor="middle" x="86.5" y="-41.5" font-family="Helvetica,sans-Serif" font-size="10.00"> mName</text>
</g>
<!-- Node3 -->
<g id="node3" class="node"><title>Node3</title>
<g id="a_node3"><a xlink:title="STL class. ">
<polygon fill="white" stroke="#bfbfbf" points="20.5,-127 20.5,-157 115.5,-157 115.5,-127 20.5,-127"/>
<text text-anchor="start" x="28.5" y="-145" font-family="Helvetica,sans-Serif" font-size="10.00">std::basic_string&lt;</text>
<text text-anchor="middle" x="68" y="-134" font-family="Helvetica,sans-Serif" font-size="10.00"> char &gt;</text>
</a>
</g>
</g>
<!-- Node3&#45;&gt;Node2 -->
<g id="edge2" class="edge"><title>Node3&#45;&gt;Node2</title>
<path fill="none" stroke="midnightblue" d="M68,-116.871C68,-106.663 68,-95.4077 68,-87.8419"/>
<polygon fill="midnightblue" stroke="midnightblue" points="64.5001,-116.931 68,-126.931 71.5001,-116.931 64.5001,-116.931"/>
</g>
</g>
</svg>
