<?xml version="1.0" encoding="UTF-8" standalone="no"?>
<!DOCTYPE svg PUBLIC "-//W3C//DTD SVG 1.1//EN"
 "http://www.w3.org/Graphics/SVG/1.1/DTD/svg11.dtd">
<!-- Generated by graphviz version 2.30.1 (20130214.1330)
 -->
<!-- Title: EvolutionaryComputing::CMatching::CIndividualPreferences::ToString Pages: 1 -->
<svg width="486pt" height="50pt"
 viewBox="0.00 0.00 486.00 50.00" xmlns="http://www.w3.org/2000/svg" xmlns:xlink="http://www.w3.org/1999/xlink">
<g id="graph0" class="graph" transform="scale(1 1) rotate(0) translate(4 46)">
<title>EvolutionaryComputing::CMatching::CIndividualPreferences::ToString</title>
<polygon fill="white" stroke="white" points="-4,5 -4,-46 483,-46 483,5 -4,5"/>
<!-- Node1 -->
<g id="node1" class="node"><title>Node1</title>
<polygon fill="#bfbfbf" stroke="black" points="0.5,-0.5 0.5,-41.5 173.5,-41.5 173.5,-0.5 0.5,-0.5"/>
<text text-anchor="start" x="8.5" y="-29.5" font-family="Helvetica,sans-Serif" font-size="10.00">EvolutionaryComputing</text>
<text text-anchor="start" x="8.5" y="-18.5" font-family="Helvetica,sans-Serif" font-size="10.00">::CMatching::CIndividualPreferences</text>
<text text-anchor="middle" x="87" y="-7.5" font-family="Helvetica,sans-Serif" font-size="10.00">::ToString</text>
</g>
<!-- Node2 -->
<g id="node2" class="node"><title>Node2</title>
<g id="a_node2"><a xlink:href="../../d3/d43/class_evolutionary_computing_1_1_c_matching.html#a8f4dec647c155ce0e4caf77169590f78" target="_top" xlink:title="EvolutionaryComputing\l::CMatching::ToString">
<polygon fill="white" stroke="black" points="210,-6 210,-36 326,-36 326,-6 210,-6"/>
<text text-anchor="start" x="218" y="-24" font-family="Helvetica,sans-Serif" font-size="10.00">EvolutionaryComputing</text>
<text text-anchor="middle" x="268" y="-13" font-family="Helvetica,sans-Serif" font-size="10.00">::CMatching::ToString</text>
</a>
</g>
</g>
<!-- Node1&#45;&gt;Node2 -->
<g id="edge1" class="edge"><title>Node1&#45;&gt;Node2</title>
<path fill="none" stroke="midnightblue" d="M183.673,-21C192.609,-21 201.462,-21 209.875,-21"/>
<polygon fill="midnightblue" stroke="midnightblue" points="183.568,-17.5001 173.568,-21 183.568,-24.5001 183.568,-17.5001"/>
</g>
<!-- Node3 -->
<g id="node3" class="node"><title>Node3</title>
<g id="a_node3"><a xlink:href="../../d3/d43/class_evolutionary_computing_1_1_c_matching.html#aa8a490603632ce45d5cbd6f1feb7eecc" target="_top" xlink:title="EvolutionaryComputing\l::CMatching::Init">
<polygon fill="white" stroke="black" points="362,-6 362,-36 478,-36 478,-6 362,-6"/>
<text text-anchor="start" x="370" y="-24" font-family="Helvetica,sans-Serif" font-size="10.00">EvolutionaryComputing</text>
<text text-anchor="middle" x="420" y="-13" font-family="Helvetica,sans-Serif" font-size="10.00">::CMatching::Init</text>
</a>
</g>
</g>
<!-- Node2&#45;&gt;Node3 -->
<g id="edge2" class="edge"><title>Node2&#45;&gt;Node3</title>
<path fill="none" stroke="midnightblue" d="M336.311,-21C344.728,-21 353.277,-21 361.525,-21"/>
<polygon fill="midnightblue" stroke="midnightblue" points="336.137,-17.5001 326.136,-21 336.136,-24.5001 336.137,-17.5001"/>
</g>
</g>
</svg>
