<?xml version="1.0" encoding="UTF-8" standalone="no"?>
<!DOCTYPE svg PUBLIC "-//W3C//DTD SVG 1.1//EN"
 "http://www.w3.org/Graphics/SVG/1.1/DTD/svg11.dtd">
<!-- Generated by graphviz version 2.30.1 (20130214.1330)
 -->
<!-- Title: EvolutionaryComputing::CMatching::CIndividualPreferences::FromStream Pages: 1 -->
<svg width="500pt" height="50pt"
 viewBox="0.00 0.00 500.00 50.00" xmlns="http://www.w3.org/2000/svg" xmlns:xlink="http://www.w3.org/1999/xlink">
<g id="graph0" class="graph" transform="scale(1 1) rotate(0) translate(4 46)">
<title>EvolutionaryComputing::CMatching::CIndividualPreferences::FromStream</title>
<polygon fill="white" stroke="white" points="-4,5 -4,-46 497,-46 497,5 -4,5"/>
<!-- Node1 -->
<g id="node1" class="node"><title>Node1</title>
<polygon fill="#bfbfbf" stroke="black" points="0.5,-0.5 0.5,-41.5 173.5,-41.5 173.5,-0.5 0.5,-0.5"/>
<text text-anchor="start" x="8.5" y="-29.5" font-family="Helvetica,sans-Serif" font-size="10.00">EvolutionaryComputing</text>
<text text-anchor="start" x="8.5" y="-18.5" font-family="Helvetica,sans-Serif" font-size="10.00">::CMatching::CIndividualPreferences</text>
<text text-anchor="middle" x="87" y="-7.5" font-family="Helvetica,sans-Serif" font-size="10.00">::FromStream</text>
</g>
<!-- Node2 -->
<g id="node2" class="node"><title>Node2</title>
<g id="a_node2"><a xlink:href="../../d3/d43/class_evolutionary_computing_1_1_c_matching.html#ac634f7b576b67270505c1bb2aa88f64e" target="_top" xlink:title="EvolutionaryComputing\l::CMatching::FromStream">
<polygon fill="white" stroke="black" points="210.5,-6 210.5,-36 339.5,-36 339.5,-6 210.5,-6"/>
<text text-anchor="start" x="218.5" y="-24" font-family="Helvetica,sans-Serif" font-size="10.00">EvolutionaryComputing</text>
<text text-anchor="middle" x="275" y="-13" font-family="Helvetica,sans-Serif" font-size="10.00">::CMatching::FromStream</text>
</a>
</g>
</g>
<!-- Node1&#45;&gt;Node2 -->
<g id="edge1" class="edge"><title>Node1&#45;&gt;Node2</title>
<path fill="none" stroke="midnightblue" d="M183.839,-21C192.866,-21 201.857,-21 210.472,-21"/>
<polygon fill="midnightblue" stroke="midnightblue" points="183.65,-17.5001 173.65,-21 183.65,-24.5001 183.65,-17.5001"/>
</g>
<!-- Node3 -->
<g id="node3" class="node"><title>Node3</title>
<g id="a_node3"><a xlink:href="../../d3/d43/class_evolutionary_computing_1_1_c_matching.html#aa8a490603632ce45d5cbd6f1feb7eecc" target="_top" xlink:title="EvolutionaryComputing\l::CMatching::Init">
<polygon fill="white" stroke="black" points="376,-6 376,-36 492,-36 492,-6 376,-6"/>
<text text-anchor="start" x="384" y="-24" font-family="Helvetica,sans-Serif" font-size="10.00">EvolutionaryComputing</text>
<text text-anchor="middle" x="434" y="-13" font-family="Helvetica,sans-Serif" font-size="10.00">::CMatching::Init</text>
</a>
</g>
</g>
<!-- Node2&#45;&gt;Node3 -->
<g id="edge2" class="edge"><title>Node2&#45;&gt;Node3</title>
<path fill="none" stroke="midnightblue" d="M349.971,-21C358.636,-21 367.375,-21 375.764,-21"/>
<polygon fill="midnightblue" stroke="midnightblue" points="349.858,-17.5001 339.858,-21 349.858,-24.5001 349.858,-17.5001"/>
</g>
</g>
</svg>
