<?xml version="1.0" encoding="UTF-8" standalone="no"?>
<!DOCTYPE svg PUBLIC "-//W3C//DTD SVG 1.1//EN"
 "http://www.w3.org/Graphics/SVG/1.1/DTD/svg11.dtd">
<!-- Generated by graphviz version 2.30.1 (20130214.1330)
 -->
<!-- Title: EvolutionaryComputing::CMatching Pages: 1 -->
<svg width="180pt" height="120pt"
 viewBox="0.00 0.00 180.00 120.00" xmlns="http://www.w3.org/2000/svg" xmlns:xlink="http://www.w3.org/1999/xlink">
<g id="graph0" class="graph" transform="scale(1 1) rotate(0) translate(4 116)">
<title>EvolutionaryComputing::CMatching</title>
<polygon fill="white" stroke="white" points="-4,5 -4,-116 177,-116 177,5 -4,5"/>
<!-- Node1 -->
<g id="node1" class="node"><title>Node1</title>
<polygon fill="#bfbfbf" stroke="black" points="28,-1 28,-31 144,-31 144,-1 28,-1"/>
<text text-anchor="start" x="36" y="-19" font-family="Helvetica,sans-Serif" font-size="10.00">EvolutionaryComputing</text>
<text text-anchor="middle" x="86" y="-8" font-family="Helvetica,sans-Serif" font-size="10.00">::CMatching</text>
</g>
<!-- Node2 -->
<g id="node2" class="node"><title>Node2</title>
<g id="a_node2"><a xlink:href="../../d8/d17/class_evolutionary_computing_1_1_c_matching_1_1_c_individual_preferences.html" target="_top" xlink:title="EvolutionaryComputing\l::CMatching::CIndividualPreferences">
<polygon fill="white" stroke="black" points="-0.5,-81 -0.5,-111 172.5,-111 172.5,-81 -0.5,-81"/>
<text text-anchor="start" x="7.5" y="-99" font-family="Helvetica,sans-Serif" font-size="10.00">EvolutionaryComputing</text>
<text text-anchor="middle" x="86" y="-88" font-family="Helvetica,sans-Serif" font-size="10.00">::CMatching::CIndividualPreferences</text>
</a>
</g>
</g>
<!-- Node2&#45;&gt;Node1 -->
<g id="edge1" class="edge"><title>Node2&#45;&gt;Node1</title>
<path fill="none" stroke="#9a32cd" stroke-dasharray="5,2" d="M86,-70.5644C86,-57.6243 86,-42.1862 86,-31.2157"/>
<polygon fill="#9a32cd" stroke="#9a32cd" points="82.5001,-70.6936 86,-80.6936 89.5001,-70.6936 82.5001,-70.6936"/>
<text text-anchor="middle" x="118" y="-53.5" font-family="Helvetica,sans-Serif" font-size="10.00"> mPreferences</text>
</g>
</g>
</svg>
