<?xml version="1.0" encoding="UTF-8" standalone="no"?>
<!DOCTYPE svg PUBLIC "-//W3C//DTD SVG 1.1//EN"
 "http://www.w3.org/Graphics/SVG/1.1/DTD/svg11.dtd">
<!-- Generated by graphviz version 2.30.1 (20130214.1330)
 -->
<!-- Title: EvolutionaryComputing::CPopulation::Vibrate Pages: 1 -->
<svg width="310pt" height="38pt"
 viewBox="0.00 0.00 310.00 38.00" xmlns="http://www.w3.org/2000/svg" xmlns:xlink="http://www.w3.org/1999/xlink">
<g id="graph0" class="graph" transform="scale(1 1) rotate(0) translate(4 34)">
<title>EvolutionaryComputing::CPopulation::Vibrate</title>
<polygon fill="white" stroke="white" points="-4,5 -4,-34 307,-34 307,5 -4,5"/>
<!-- Node1 -->
<g id="node1" class="node"><title>Node1</title>
<polygon fill="#bfbfbf" stroke="black" points="0,-0 0,-30 116,-30 116,-0 0,-0"/>
<text text-anchor="start" x="8" y="-18" font-family="Helvetica,sans-Serif" font-size="10.00">EvolutionaryComputing</text>
<text text-anchor="middle" x="58" y="-7" font-family="Helvetica,sans-Serif" font-size="10.00">::CPopulation::Vibrate</text>
</g>
<!-- Node2 -->
<g id="node2" class="node"><title>Node2</title>
<g id="a_node2"><a xlink:href="../../d3/d5f/class_evolutionary_computing_1_1_c_population.html#af350ca43c232b80789adb1526b1d1285" target="_top" xlink:title="EvolutionaryComputing\l::CPopulation::NextGeneration">
<polygon fill="white" stroke="black" points="152.5,-0 152.5,-30 301.5,-30 301.5,-0 152.5,-0"/>
<text text-anchor="start" x="160.5" y="-18" font-family="Helvetica,sans-Serif" font-size="10.00">EvolutionaryComputing</text>
<text text-anchor="middle" x="227" y="-7" font-family="Helvetica,sans-Serif" font-size="10.00">::CPopulation::NextGeneration</text>
</a>
</g>
</g>
<!-- Node1&#45;&gt;Node2 -->
<g id="edge1" class="edge"><title>Node1&#45;&gt;Node2</title>
<path fill="none" stroke="midnightblue" d="M126.051,-15C134.726,-15 143.648,-15 152.421,-15"/>
<polygon fill="midnightblue" stroke="midnightblue" points="126.005,-11.5001 116.005,-15 126.005,-18.5001 126.005,-11.5001"/>
</g>
</g>
</svg>
