<?xml version="1.0" encoding="UTF-8" standalone="no"?>
<!DOCTYPE svg PUBLIC "-//W3C//DTD SVG 1.1//EN"
 "http://www.w3.org/Graphics/SVG/1.1/DTD/svg11.dtd">
<!-- Generated by graphviz version 2.30.1 (20130214.1330)
 -->
<!-- Title: EvolutionaryComputing::CPopulation::Fitness Pages: 1 -->
<svg width="310pt" height="87pt"
 viewBox="0.00 0.00 310.00 87.00" xmlns="http://www.w3.org/2000/svg" xmlns:xlink="http://www.w3.org/1999/xlink">
<g id="graph0" class="graph" transform="scale(1 1) rotate(0) translate(4 83)">
<title>EvolutionaryComputing::CPopulation::Fitness</title>
<polygon fill="white" stroke="white" points="-4,5 -4,-83 307,-83 307,5 -4,5"/>
<!-- Node1 -->
<g id="node1" class="node"><title>Node1</title>
<polygon fill="#bfbfbf" stroke="black" points="0,-24 0,-54 116,-54 116,-24 0,-24"/>
<text text-anchor="start" x="8" y="-42" font-family="Helvetica,sans-Serif" font-size="10.00">EvolutionaryComputing</text>
<text text-anchor="middle" x="58" y="-31" font-family="Helvetica,sans-Serif" font-size="10.00">::CPopulation::Fitness</text>
</g>
<!-- Node2 -->
<g id="node2" class="node"><title>Node2</title>
<g id="a_node2"><a xlink:href="../../d3/d5f/class_evolutionary_computing_1_1_c_population.html#a07dfb7dc1918cdc157596f637db3eb8c" target="_top" xlink:title="EvolutionaryComputing\l::CPopulation::Init">
<polygon fill="white" stroke="black" points="169,-49 169,-79 285,-79 285,-49 169,-49"/>
<text text-anchor="start" x="177" y="-67" font-family="Helvetica,sans-Serif" font-size="10.00">EvolutionaryComputing</text>
<text text-anchor="middle" x="227" y="-56" font-family="Helvetica,sans-Serif" font-size="10.00">::CPopulation::Init</text>
</a>
</g>
</g>
<!-- Node1&#45;&gt;Node2 -->
<g id="edge1" class="edge"><title>Node1&#45;&gt;Node2</title>
<path fill="none" stroke="midnightblue" d="M126.191,-49.0585C140.371,-51.1813 155.205,-53.402 168.969,-55.4624"/>
<polygon fill="midnightblue" stroke="midnightblue" points="126.413,-45.5528 116.005,-47.5337 125.376,-52.4757 126.413,-45.5528"/>
</g>
<!-- Node3 -->
<g id="node3" class="node"><title>Node3</title>
<g id="a_node3"><a xlink:href="../../d3/d5f/class_evolutionary_computing_1_1_c_population.html#af350ca43c232b80789adb1526b1d1285" target="_top" xlink:title="EvolutionaryComputing\l::CPopulation::NextGeneration">
<polygon fill="white" stroke="black" points="152.5,-0 152.5,-30 301.5,-30 301.5,-0 152.5,-0"/>
<text text-anchor="start" x="160.5" y="-18" font-family="Helvetica,sans-Serif" font-size="10.00">EvolutionaryComputing</text>
<text text-anchor="middle" x="227" y="-7" font-family="Helvetica,sans-Serif" font-size="10.00">::CPopulation::NextGeneration</text>
</a>
</g>
</g>
<!-- Node1&#45;&gt;Node3 -->
<g id="edge2" class="edge"><title>Node1&#45;&gt;Node3</title>
<path fill="none" stroke="midnightblue" d="M126.051,-29.3639C134.726,-28.1172 143.648,-26.8351 152.421,-25.5742"/>
<polygon fill="midnightblue" stroke="midnightblue" points="125.405,-25.9207 116.005,-30.8077 126.401,-32.8495 125.405,-25.9207"/>
</g>
</g>
</svg>
