<?xml version="1.0" encoding="UTF-8" standalone="no"?>
<!DOCTYPE svg PUBLIC "-//W3C//DTD SVG 1.1//EN"
 "http://www.w3.org/Graphics/SVG/1.1/DTD/svg11.dtd">
<!-- Generated by graphviz version 2.30.1 (20130214.1330)
 -->
<!-- Title: EvolutionaryComputing::CPopulation::NextGeneration Pages: 1 -->
<svg width="340pt" height="197pt"
 viewBox="0.00 0.00 340.00 197.00" xmlns="http://www.w3.org/2000/svg" xmlns:xlink="http://www.w3.org/1999/xlink">
<g id="graph0" class="graph" transform="scale(1 1) rotate(0) translate(4 193)">
<title>EvolutionaryComputing::CPopulation::NextGeneration</title>
<polygon fill="white" stroke="white" points="-4,5 -4,-193 337,-193 337,5 -4,5"/>
<!-- Node1 -->
<g id="node1" class="node"><title>Node1</title>
<polygon fill="#bfbfbf" stroke="black" points="0.5,-82 0.5,-112 149.5,-112 149.5,-82 0.5,-82"/>
<text text-anchor="start" x="8.5" y="-100" font-family="Helvetica,sans-Serif" font-size="10.00">EvolutionaryComputing</text>
<text text-anchor="middle" x="75" y="-89" font-family="Helvetica,sans-Serif" font-size="10.00">::CPopulation::NextGeneration</text>
</g>
<!-- Node2 -->
<g id="node2" class="node"><title>Node2</title>
<g id="a_node2"><a xlink:href="../../d3/d5f/class_evolutionary_computing_1_1_c_population.html#a4fa1f32585c69e69276c52ecd839cd47" target="_top" xlink:title="EvolutionaryComputing\l::CPopulation::Altruism">
<polygon fill="white" stroke="black" points="200.5,-159 200.5,-189 317.5,-189 317.5,-159 200.5,-159"/>
<text text-anchor="start" x="208.5" y="-177" font-family="Helvetica,sans-Serif" font-size="10.00">EvolutionaryComputing</text>
<text text-anchor="middle" x="259" y="-166" font-family="Helvetica,sans-Serif" font-size="10.00">::CPopulation::Altruism</text>
</a>
</g>
</g>
<!-- Node1&#45;&gt;Node2 -->
<g id="edge1" class="edge"><title>Node1&#45;&gt;Node2</title>
<path fill="none" stroke="midnightblue" d="M105.494,-112.002C127.425,-122.896 158.233,-137.654 186,-149 191.414,-151.212 197.106,-153.406 202.817,-155.522"/>
<polygon fill="midnightblue" stroke="midnightblue" points="201.807,-158.878 212.401,-158.998 204.194,-152.298 201.807,-158.878"/>
</g>
<!-- Node3 -->
<g id="node3" class="node"><title>Node3</title>
<g id="a_node3"><a xlink:href="../../d3/d5f/class_evolutionary_computing_1_1_c_population.html#ae92eb4e47925edd64cf43e402df18067" target="_top" xlink:title="EvolutionaryComputing\l::CPopulation::Fitness">
<polygon fill="white" stroke="black" points="201,-110 201,-140 317,-140 317,-110 201,-110"/>
<text text-anchor="start" x="209" y="-128" font-family="Helvetica,sans-Serif" font-size="10.00">EvolutionaryComputing</text>
<text text-anchor="middle" x="259" y="-117" font-family="Helvetica,sans-Serif" font-size="10.00">::CPopulation::Fitness</text>
</a>
</g>
</g>
<!-- Node1&#45;&gt;Node3 -->
<g id="edge2" class="edge"><title>Node1&#45;&gt;Node3</title>
<path fill="none" stroke="midnightblue" d="M149.502,-108.308C163.102,-110.4 177.245,-112.576 190.651,-114.639"/>
<polygon fill="midnightblue" stroke="midnightblue" points="190.323,-118.129 200.739,-116.191 191.387,-111.211 190.323,-118.129"/>
</g>
<!-- Node4 -->
<g id="node4" class="node"><title>Node4</title>
<g id="a_node4"><a xlink:href="../../d3/d5f/class_evolutionary_computing_1_1_c_population.html#aabb08f3b6020691a8e322a365b1baa57" target="_top" xlink:title="EvolutionaryComputing\l::CPopulation::RouletteWheel\lSelection">
<polygon fill="white" stroke="black" points="186.5,-49.5 186.5,-90.5 331.5,-90.5 331.5,-49.5 186.5,-49.5"/>
<text text-anchor="start" x="194.5" y="-78.5" font-family="Helvetica,sans-Serif" font-size="10.00">EvolutionaryComputing</text>
<text text-anchor="start" x="194.5" y="-67.5" font-family="Helvetica,sans-Serif" font-size="10.00">::CPopulation::RouletteWheel</text>
<text text-anchor="middle" x="259" y="-56.5" font-family="Helvetica,sans-Serif" font-size="10.00">Selection</text>
</a>
</g>
</g>
<!-- Node1&#45;&gt;Node4 -->
<g id="edge3" class="edge"><title>Node1&#45;&gt;Node4</title>
<path fill="none" stroke="midnightblue" d="M149.502,-86.0959C158.318,-84.7879 167.363,-83.4462 176.287,-82.1223"/>
<polygon fill="midnightblue" stroke="midnightblue" points="176.914,-85.5676 186.292,-80.638 175.887,-78.6434 176.914,-85.5676"/>
</g>
<!-- Node5 -->
<g id="node5" class="node"><title>Node5</title>
<g id="a_node5"><a xlink:href="../../d3/d5f/class_evolutionary_computing_1_1_c_population.html#a7604d08fb97103a89ba4ce8a55cecac7" target="_top" xlink:title="EvolutionaryComputing\l::CPopulation::Vibrate">
<polygon fill="white" stroke="black" points="201,-0 201,-30 317,-30 317,-0 201,-0"/>
<text text-anchor="start" x="209" y="-18" font-family="Helvetica,sans-Serif" font-size="10.00">EvolutionaryComputing</text>
<text text-anchor="middle" x="259" y="-7" font-family="Helvetica,sans-Serif" font-size="10.00">::CPopulation::Vibrate</text>
</a>
</g>
</g>
<!-- Node1&#45;&gt;Node5 -->
<g id="edge4" class="edge"><title>Node1&#45;&gt;Node5</title>
<path fill="none" stroke="midnightblue" d="M102.6,-81.8402C124.561,-69.6623 156.756,-52.5763 186,-40 191.09,-37.811 196.442,-35.6691 201.833,-33.6177"/>
<polygon fill="midnightblue" stroke="midnightblue" points="203.365,-36.7826 211.531,-30.0319 200.938,-30.2169 203.365,-36.7826"/>
</g>
</g>
</svg>
