<?xml version="1.0" encoding="UTF-8" standalone="no"?>
<!DOCTYPE svg PUBLIC "-//W3C//DTD SVG 1.1//EN"
 "http://www.w3.org/Graphics/SVG/1.1/DTD/svg11.dtd">
<!-- Generated by graphviz version 2.30.1 (20130214.1330)
 -->
<!-- Title: CHapSampleData Pages: 1 -->
<svg width="148pt" height="382pt"
 viewBox="0.00 0.00 148.00 382.00" xmlns="http://www.w3.org/2000/svg" xmlns:xlink="http://www.w3.org/1999/xlink">
<g id="graph0" class="graph" transform="scale(1 1) rotate(0) translate(4 378)">
<title>CHapSampleData</title>
<polygon fill="white" stroke="white" points="-4,5 -4,-378 145,-378 145,5 -4,5"/>
<!-- Node1 -->
<g id="node1" class="node"><title>Node1</title>
<polygon fill="#bfbfbf" stroke="black" points="23,-0.5 23,-19.5 117,-19.5 117,-0.5 23,-0.5"/>
<text text-anchor="middle" x="70" y="-7.5" font-family="Helvetica,sans-Serif" font-size="10.00">CHapSampleData</text>
</g>
<!-- Node2 -->
<g id="node2" class="node"><title>Node2</title>
<g id="a_node2"><a xlink:href="../../da/dee/class_c_genotype_data.html" target="_top" xlink:title="Interface for case and control dataset. ">
<polygon fill="white" stroke="black" points="27,-58.5 27,-77.5 113,-77.5 113,-58.5 27,-58.5"/>
<text text-anchor="middle" x="70" y="-65.5" font-family="Helvetica,sans-Serif" font-size="10.00">CGenotypeData</text>
</a>
</g>
</g>
<!-- Node2&#45;&gt;Node1 -->
<g id="edge1" class="edge"><title>Node2&#45;&gt;Node1</title>
<path fill="none" stroke="midnightblue" d="M70,-47.953C70,-38.2875 70,-27.0312 70,-19.5052"/>
<polygon fill="midnightblue" stroke="midnightblue" points="66.5001,-48.25 70,-58.25 73.5001,-48.25 66.5001,-48.25"/>
</g>
<!-- Node3 -->
<g id="node3" class="node"><title>Node3</title>
<polygon fill="white" stroke="#bfbfbf" points="0,-137 0,-167 140,-167 140,-137 0,-137"/>
<text text-anchor="start" x="8" y="-155" font-family="Helvetica,sans-Serif" font-size="10.00">std::vector&lt; CGenotypeData</text>
<text text-anchor="middle" x="70" y="-144" font-family="Helvetica,sans-Serif" font-size="10.00">::CSnpData &gt;</text>
</g>
<!-- Node3&#45;&gt;Node2 -->
<g id="edge2" class="edge"><title>Node3&#45;&gt;Node2</title>
<path fill="none" stroke="#9a32cd" stroke-dasharray="5,2" d="M70,-126.6C70,-110.031 70,-89.1113 70,-77.5915"/>
<polygon fill="#9a32cd" stroke="#9a32cd" points="66.5001,-126.717 70,-136.717 73.5001,-126.717 66.5001,-126.717"/>
<text text-anchor="middle" x="91.5" y="-110" font-family="Helvetica,sans-Serif" font-size="10.00"> mControl</text>
<text text-anchor="middle" x="91.5" y="-99" font-family="Helvetica,sans-Serif" font-size="10.00">mCase</text>
</g>
<!-- Node4 -->
<g id="node4" class="node"><title>Node4</title>
<g id="a_node4"><a xlink:href="../../df/d02/struct_c_genotype_data_1_1_c_snp_data.html" target="_top" xlink:title="Input data for one SNP. ">
<polygon fill="white" stroke="black" points="2,-216.5 2,-235.5 138,-235.5 138,-216.5 2,-216.5"/>
<text text-anchor="middle" x="70" y="-223.5" font-family="Helvetica,sans-Serif" font-size="10.00">CGenotypeData::CSnpData</text>
</a>
</g>
</g>
<!-- Node4&#45;&gt;Node3 -->
<g id="edge3" class="edge"><title>Node4&#45;&gt;Node3</title>
<path fill="none" stroke="#9a32cd" stroke-dasharray="5,2" d="M70,-206.085C70,-193.915 70,-178.354 70,-167.232"/>
<polygon fill="#9a32cd" stroke="#9a32cd" points="66.5001,-206.458 70,-216.458 73.5001,-206.458 66.5001,-206.458"/>
<text text-anchor="middle" x="91.5" y="-189.5" font-family="Helvetica,sans-Serif" font-size="10.00"> elements</text>
</g>
<!-- Node5 -->
<g id="node5" class="node"><title>Node5</title>
<g id="a_node5"><a xlink:title="STL class. ">
<polygon fill="white" stroke="#bfbfbf" points="40,-284.5 40,-303.5 100,-303.5 100,-284.5 40,-284.5"/>
<text text-anchor="middle" x="70" y="-291.5" font-family="Helvetica,sans-Serif" font-size="10.00">std::string</text>
</a>
</g>
</g>
<!-- Node5&#45;&gt;Node4 -->
<g id="edge4" class="edge"><title>Node5&#45;&gt;Node4</title>
<path fill="none" stroke="#9a32cd" stroke-dasharray="5,2" d="M70,-274.041C70,-261.472 70,-245.563 70,-235.841"/>
<polygon fill="#9a32cd" stroke="#9a32cd" points="66.5001,-274.372 70,-284.372 73.5001,-274.372 66.5001,-274.372"/>
<text text-anchor="middle" x="88.5" y="-257.5" font-family="Helvetica,sans-Serif" font-size="10.00"> mName</text>
</g>
<!-- Node6 -->
<g id="node6" class="node"><title>Node6</title>
<g id="a_node6"><a xlink:title="STL class. ">
<polygon fill="white" stroke="#bfbfbf" points="22.5,-343 22.5,-373 117.5,-373 117.5,-343 22.5,-343"/>
<text text-anchor="start" x="30.5" y="-361" font-family="Helvetica,sans-Serif" font-size="10.00">std::basic_string&lt;</text>
<text text-anchor="middle" x="70" y="-350" font-family="Helvetica,sans-Serif" font-size="10.00"> char &gt;</text>
</a>
</g>
</g>
<!-- Node6&#45;&gt;Node5 -->
<g id="edge5" class="edge"><title>Node6&#45;&gt;Node5</title>
<path fill="none" stroke="midnightblue" d="M70,-332.871C70,-322.663 70,-311.408 70,-303.842"/>
<polygon fill="midnightblue" stroke="midnightblue" points="66.5001,-332.931 70,-342.931 73.5001,-332.931 66.5001,-332.931"/>
</g>
</g>
</svg>
