<?xml version="1.0" encoding="UTF-8" standalone="no"?>
<!DOCTYPE svg PUBLIC "-//W3C//DTD SVG 1.1//EN"
 "http://www.w3.org/Graphics/SVG/1.1/DTD/svg11.dtd">
<!-- Generated by graphviz version 2.30.1 (20130214.1330)
 -->
<!-- Title: Population.h Pages: 1 -->
<svg width="119pt" height="140pt"
 viewBox="0.00 0.00 119.00 140.00" xmlns="http://www.w3.org/2000/svg" xmlns:xlink="http://www.w3.org/1999/xlink">
<g id="graph0" class="graph" transform="scale(1 1) rotate(0) translate(4 136)">
<title>Population.h</title>
<polygon fill="white" stroke="white" points="-4,5 -4,-136 116,-136 116,5 -4,5"/>
<!-- Node1 -->
<g id="node1" class="node"><title>Node1</title>
<polygon fill="#bfbfbf" stroke="black" points="40.5,-112.5 40.5,-131.5 111.5,-131.5 111.5,-112.5 40.5,-112.5"/>
<text text-anchor="middle" x="76" y="-119.5" font-family="Helvetica,sans-Serif" font-size="10.00">Population.h</text>
</g>
<!-- Node2 -->
<g id="node2" class="node"><title>Node2</title>
<g id="a_node2"><a xlink:href="../../dc/d31/_chromosome_8h.html" target="_top" xlink:title="Chromosome.h">
<polygon fill="white" stroke="black" points="-0.5,-56.5 -0.5,-75.5 82.5,-75.5 82.5,-56.5 -0.5,-56.5"/>
<text text-anchor="middle" x="41" y="-63.5" font-family="Helvetica,sans-Serif" font-size="10.00">Chromosome.h</text>
</a>
</g>
</g>
<!-- Node1&#45;&gt;Node2 -->
<g id="edge1" class="edge"><title>Node1&#45;&gt;Node2</title>
<path fill="none" stroke="midnightblue" d="M70.2205,-112.083C65.3276,-104.534 58.1726,-93.4948 52.1674,-84.2298"/>
<polygon fill="midnightblue" stroke="midnightblue" points="55.048,-82.239 46.672,-75.7511 49.174,-86.0463 55.048,-82.239"/>
</g>
<!-- Node3 -->
<g id="node3" class="node"><title>Node3</title>
<polygon fill="white" stroke="#bfbfbf" points="51.5,-0.5 51.5,-19.5 100.5,-19.5 100.5,-0.5 51.5,-0.5"/>
<text text-anchor="middle" x="76" y="-7.5" font-family="Helvetica,sans-Serif" font-size="10.00">random</text>
</g>
<!-- Node1&#45;&gt;Node3 -->
<g id="edge3" class="edge"><title>Node1&#45;&gt;Node3</title>
<path fill="none" stroke="midnightblue" d="M79.8557,-112.249C83.5577,-103.333 88.8894,-89.006 91,-76 93.5798,-60.1027 88.9306,-42.2964 84.145,-29.3461"/>
<polygon fill="midnightblue" stroke="midnightblue" points="87.2561,-27.7049 80.2486,-19.7585 80.7711,-30.3404 87.2561,-27.7049"/>
</g>
<!-- Node2&#45;&gt;Node3 -->
<g id="edge2" class="edge"><title>Node2&#45;&gt;Node3</title>
<path fill="none" stroke="midnightblue" d="M46.7795,-56.083C51.6724,-48.5341 58.8274,-37.4948 64.8326,-28.2298"/>
<polygon fill="midnightblue" stroke="midnightblue" points="67.826,-30.0463 70.328,-19.7511 61.952,-26.239 67.826,-30.0463"/>
</g>
</g>
</svg>
