<?xml version="1.0" encoding="UTF-8" standalone="no"?>
<!DOCTYPE svg PUBLIC "-//W3C//DTD SVG 1.1//EN"
 "http://www.w3.org/Graphics/SVG/1.1/DTD/svg11.dtd">
<!-- Generated by graphviz version 2.30.1 (20130214.1330)
 -->
<!-- Title: ConfigParams.h Pages: 1 -->
<svg width="259pt" height="84pt"
 viewBox="0.00 0.00 259.00 84.00" xmlns="http://www.w3.org/2000/svg" xmlns:xlink="http://www.w3.org/1999/xlink">
<g id="graph0" class="graph" transform="scale(1 1) rotate(0) translate(4 80)">
<title>ConfigParams.h</title>
<polygon fill="white" stroke="white" points="-4,5 -4,-80 256,-80 256,5 -4,5"/>
<!-- Node1 -->
<g id="node1" class="node"><title>Node1</title>
<polygon fill="#bfbfbf" stroke="black" points="79,-56.5 79,-75.5 165,-75.5 165,-56.5 79,-56.5"/>
<text text-anchor="middle" x="122" y="-63.5" font-family="Helvetica,sans-Serif" font-size="10.00">ConfigParams.h</text>
</g>
<!-- Node2 -->
<g id="node2" class="node"><title>Node2</title>
<polygon fill="white" stroke="#bfbfbf" points="0,-0.5 0,-19.5 52,-19.5 52,-0.5 0,-0.5"/>
<text text-anchor="middle" x="26" y="-7.5" font-family="Helvetica,sans-Serif" font-size="10.00">memory</text>
</g>
<!-- Node1&#45;&gt;Node2 -->
<g id="edge1" class="edge"><title>Node1&#45;&gt;Node2</title>
<path fill="none" stroke="midnightblue" d="M106.576,-56.324C91.4605,-47.8215 68.1846,-34.7288 50.5288,-24.7975"/>
<polygon fill="midnightblue" stroke="midnightblue" points="51.8175,-21.5066 41.3858,-19.6545 48.3856,-27.6077 51.8175,-21.5066"/>
</g>
<!-- Node3 -->
<g id="node3" class="node"><title>Node3</title>
<polygon fill="white" stroke="#bfbfbf" points="70.5,-0.5 70.5,-19.5 111.5,-19.5 111.5,-0.5 70.5,-0.5"/>
<text text-anchor="middle" x="91" y="-7.5" font-family="Helvetica,sans-Serif" font-size="10.00">string</text>
</g>
<!-- Node1&#45;&gt;Node3 -->
<g id="edge2" class="edge"><title>Node1&#45;&gt;Node3</title>
<path fill="none" stroke="midnightblue" d="M116.881,-56.083C112.592,-48.6127 106.342,-37.7244 101.058,-28.5199"/>
<polygon fill="midnightblue" stroke="midnightblue" points="104.038,-26.6811 96.0238,-19.7511 97.9671,-30.1662 104.038,-26.6811"/>
</g>
<!-- Node4 -->
<g id="node4" class="node"><title>Node4</title>
<polygon fill="white" stroke="#bfbfbf" points="129.5,-0.5 129.5,-19.5 178.5,-19.5 178.5,-0.5 129.5,-0.5"/>
<text text-anchor="middle" x="154" y="-7.5" font-family="Helvetica,sans-Serif" font-size="10.00">fstream</text>
</g>
<!-- Node1&#45;&gt;Node4 -->
<g id="edge3" class="edge"><title>Node1&#45;&gt;Node4</title>
<path fill="none" stroke="midnightblue" d="M127.284,-56.083C131.711,-48.6127 138.163,-37.7244 143.618,-28.5199"/>
<polygon fill="midnightblue" stroke="midnightblue" points="146.727,-30.1383 148.814,-19.7511 140.705,-26.5697 146.727,-30.1383"/>
</g>
<!-- Node5 -->
<g id="node5" class="node"><title>Node5</title>
<polygon fill="white" stroke="#bfbfbf" points="197,-0.5 197,-19.5 251,-19.5 251,-0.5 197,-0.5"/>
<text text-anchor="middle" x="224" y="-7.5" font-family="Helvetica,sans-Serif" font-size="10.00">iostream</text>
</g>
<!-- Node1&#45;&gt;Node5 -->
<g id="edge4" class="edge"><title>Node1&#45;&gt;Node5</title>
<path fill="none" stroke="midnightblue" d="M138.388,-56.324C154.671,-47.7034 179.867,-34.3643 198.716,-24.3855"/>
<polygon fill="midnightblue" stroke="midnightblue" points="200.452,-27.4267 207.653,-19.6545 197.177,-21.2402 200.452,-27.4267"/>
</g>
</g>
</svg>
